<svg xmlns="http://www.w3.org/2000/svg" viewBox="0 0 450 220"><defs><style>.cls-1{fill:#2b2b29;}.cls-2{fill:#fff;}</style></defs><g id="Layer_3" data-name="Layer 3"><path class="cls-1" d="M117.78,88.77v42.45a1128,1128,0,0,0,214.44,0V88.77A1128.8,1128.8,0,0,0,117.78,88.77Z" transform="translate(0)"/><path class="cls-2" d="M121,94.42v19.21q104,1.61,208,0V94.42A1556.69,1556.69,0,0,0,121,94.42Z" transform="translate(0)"/><path class="cls-1" d="M286.37,117.57q22-.19,43.93-.52V97.83Q314.25,96.77,298.18,96A97.49,97.49,0,0,1,286.37,117.57Z" transform="translate(0)"/><path class="cls-1" d="M329.26,106l-.44-.54a.65.65,0,0,0-1,.12,1.24,1.24,0,0,0,.16,1.57c.36.46.73.91,1.1,1.37l-2.22,2.71-2.29-2.84,1.27-1.56a1,1,0,0,0-.07-1.3.74.74,0,0,0-1.16,0L323.44,107l-1.32-1.64a.67.67,0,0,0-1.05.06,1.05,1.05,0,0,0,0,1.33l1.3,1.62-2.22,2.71-2.28-2.84,1.25-1.56a1,1,0,0,0-.06-1.32.76.76,0,0,0-1.17,0l-1.16,1.44c-.42-.53-.84-1-1.25-1.57a.73.73,0,0,0-1.12,0,1.1,1.1,0,0,0,0,1.36l1.3,1.61L313.35,111l-2.28-2.86c.42-.52.83-1,1.26-1.56a1.07,1.07,0,0,0-.06-1.33.74.74,0,0,0-1.17,0l-1.16,1.44-1.24-1.56a.73.73,0,0,0-1.13,0,1.1,1.1,0,0,0,0,1.37l1.29,1.61-2.22,2.76c-.76-1-1.52-1.91-2.28-2.88.41-.52.83-1,1.25-1.55a1.1,1.1,0,0,0-.05-1.35.75.75,0,0,0-1.18,0l-1.16,1.44L302,105a.72.72,0,0,0-1.13,0,1.11,1.11,0,0,0,0,1.38c.42.53.85,1.06,1.27,1.6l-2.23,2.78-2.28-2.88,1.25-1.57a1.1,1.1,0,0,0,0-1.36.76.76,0,0,0-1.18,0l-1.15,1.45-1.24-1.55a.72.72,0,0,0-1.13,0,1.13,1.13,0,0,0,0,1.4l1.26,1.6-2.23,2.8-2.27-2.9,1.25-1.57a1.1,1.1,0,0,0,0-1.36.76.76,0,0,0-1.19,0c-.38.48-.76,1-1.15,1.45l-1.23-1.56a.72.72,0,0,0-1.13,0,1.13,1.13,0,0,0,0,1.4l1.26,1.61-2.23,2.81-2.27-2.89,1.25-1.59a1.1,1.1,0,0,0,0-1.37.76.76,0,0,0-1.19.06l-1.15,1.46-1.22-1.56a.73.73,0,0,0-1.14,0,1.14,1.14,0,0,0,0,1.42l1.25,1.6-2.24,2.83-2.26-2.9,1.25-1.59a1.13,1.13,0,0,0,0-1.39.77.77,0,0,0-1.19.07l-1.15,1.46L275,104.52a.73.73,0,0,0-1.14,0,1.14,1.14,0,0,0,0,1.42l1.25,1.6-2.24,2.85-2.26-2.9c.41-.54.83-1.07,1.25-1.61a1.13,1.13,0,0,0,0-1.39.75.75,0,0,0-1.19.08L269.43,106l-1.21-1.56a.73.73,0,0,0-1.15,0,1.16,1.16,0,0,0,0,1.43l1.25,1.6-2.24,2.87-2.27-2.92,1.25-1.61a1.16,1.16,0,0,0,0-1.4.77.77,0,0,0-1.2.08c-.38.49-.76,1-1.15,1.48l-1.21-1.56a.73.73,0,0,0-1.15,0,1.19,1.19,0,0,0,0,1.44l1.24,1.6-2.24,2.88-2.26-2.93c.42-.53.83-1.07,1.25-1.61a1.14,1.14,0,0,0,0-1.4.76.76,0,0,0-1.19.08l-1.15,1.48-1.21-1.55a.73.73,0,0,0-1.15,0,1.17,1.17,0,0,0,0,1.44c.41.54.82,1.07,1.24,1.6l-2.25,2.89-2.26-2.91,1.26-1.63a1.14,1.14,0,0,0,0-1.4.76.76,0,0,0-1.19.08l-1.15,1.49L248,104.28a.73.73,0,0,0-1.15,0,1.22,1.22,0,0,0,0,1.45l1.24,1.59-2.25,2.9-2.26-2.92,1.25-1.62a1.14,1.14,0,0,0,0-1.4.76.76,0,0,0-1.2.08l-1.14,1.49-1.21-1.55a.72.72,0,0,0-1.15,0,1.19,1.19,0,0,0,0,1.45l1.23,1.58-2.25,2.9-2.26-2.91L238,105.6a1.14,1.14,0,0,0,0-1.4.77.77,0,0,0-1.2.09l-1.15,1.49-1.2-1.55a.72.72,0,0,0-1.15,0,1.19,1.19,0,0,0,0,1.45l1.23,1.59-2.25,2.9L230,107.22l1.26-1.63a1.14,1.14,0,0,0,0-1.4.76.76,0,0,0-1.2.09l-1.15,1.49-1.2-1.54a.73.73,0,0,0-1.16,0,1.2,1.2,0,0,0,0,1.45c.41.52.81,1,1.22,1.58l-2.25,2.91-2.25-2.9,1.26-1.63a1.16,1.16,0,0,0,0-1.41.76.76,0,0,0-1.19.09l-1.16,1.5-1.2-1.54a.73.73,0,0,0-1.16,0,1.2,1.2,0,0,0,0,1.45l1.22,1.58-2.26,2.92-2.24-2.91,1.26-1.63a1.16,1.16,0,0,0,0-1.4.76.76,0,0,0-1.2.09l-1.16,1.5-1.19-1.54a.73.73,0,0,0-1.16,0,1.17,1.17,0,0,0,0,1.45l1.22,1.57c-.76,1-1.51,2-2.26,2.92l-2.25-2.9,1.27-1.64a1.14,1.14,0,0,0,0-1.4.76.76,0,0,0-1.19.1l-1.16,1.5-1.19-1.53a.73.73,0,0,0-1.16,0,1.19,1.19,0,0,0,0,1.45l1.22,1.57c-.75,1-1.51,2-2.26,2.92L203,107.32l1.28-1.65a1.14,1.14,0,0,0,0-1.4.75.75,0,0,0-1.18.1l-1.17,1.51-1.2-1.54a.73.73,0,0,0-1.15,0,1.19,1.19,0,0,0,0,1.45l1.22,1.57c-.76,1-1.51,1.94-2.26,2.92l-2.25-2.88,1.28-1.65a1.13,1.13,0,0,0,0-1.39.75.75,0,0,0-1.18.09c-.4.5-.79,1-1.18,1.51L194,104.4a.73.73,0,0,0-1.15,0,1.17,1.17,0,0,0,0,1.44l1.22,1.57-2.27,2.92c-.75-1-1.5-1.91-2.24-2.87l1.28-1.65a1.11,1.11,0,0,0,0-1.38.76.76,0,0,0-1.19.09L188.39,106c-.4-.51-.79-1-1.19-1.52a.73.73,0,0,0-1.15,0,1.19,1.19,0,0,0,0,1.44l1.22,1.56c-.76,1-1.51,1.93-2.27,2.9l-2.23-2.85,1.28-1.65a1.1,1.1,0,0,0,0-1.37.75.75,0,0,0-1.18.09l-1.18,1.51-1.19-1.51a.73.73,0,0,0-1.15,0,1.16,1.16,0,0,0,0,1.43l1.22,1.56-2.27,2.89L176,107.59l1.29-1.65a1.13,1.13,0,0,0,0-1.37.75.75,0,0,0-1.18.09l-1.19,1.51-1.19-1.51a.72.72,0,0,0-1.14,0,1.14,1.14,0,0,0,0,1.42l1.22,1.54c-.76,1-1.52,1.93-2.27,2.9l-2.24-2.82,1.3-1.65a1.11,1.11,0,0,0-.05-1.36.76.76,0,0,0-1.18.08c-.39.51-.79,1-1.19,1.52l-1.19-1.51a.73.73,0,0,0-1.15,0,1.13,1.13,0,0,0,0,1.4l1.22,1.54-2.27,2.89c-.74-.94-1.49-1.87-2.23-2.8l1.3-1.65a1.1,1.1,0,0,0-.05-1.35.75.75,0,0,0-1.17.08l-1.2,1.52-1.19-1.5a.73.73,0,0,0-1.15,0,1.14,1.14,0,0,0,0,1.41c.41.5.81,1,1.22,1.52L158,110.7l-2.23-2.78,1.3-1.65a1.07,1.07,0,0,0-.05-1.33.75.75,0,0,0-1.17.07l-1.2,1.51-1.2-1.49a.73.73,0,0,0-1.14,0,1.13,1.13,0,0,0,0,1.39l1.22,1.51-2.29,2.88L149,108.06l1.32-1.65a1.06,1.06,0,0,0-.07-1.33.74.74,0,0,0-1.16.08c-.4.5-.81,1-1.21,1.51l-1.19-1.49a.73.73,0,0,0-1.14,0,1.11,1.11,0,0,0,0,1.37c.41.5.81,1,1.22,1.52L144.46,111l-2.22-2.74,1.32-1.65a1.06,1.06,0,0,0-.06-1.32.75.75,0,0,0-1.16.07l-1.22,1.52-1.2-1.49a.73.73,0,0,0-1.13,0,1.1,1.1,0,0,0,0,1.36l1.23,1.52-2.28,2.85-2.22-2.73,1.33-1.65a1,1,0,0,0-.08-1.29.74.74,0,0,0-1.15.06c-.4.51-.81,1-1.22,1.52l-1.2-1.48a.72.72,0,0,0-1.13,0,1.07,1.07,0,0,0,0,1.34l1.23,1.51L131,111.24c-.74-.9-1.47-1.8-2.22-2.7l1.35-1.66a1,1,0,0,0-.08-1.28.74.74,0,0,0-1.15.06l-1.23,1.52-1.21-1.47a.72.72,0,0,0-1.12,0,1.07,1.07,0,0,0,0,1.33c.42.5.83,1,1.24,1.51l-2.29,2.82L122,108.72l1.09-1.34a1.26,1.26,0,0,0,.18-1.58c-.34-.4-.94-.2-1.27.21s-.71.86-1.06,1.3l0,.07h0c-.33-.4-1-.35-1,.16a4,4,0,0,0,.24,1.32,3.56,3.56,0,0,0-.24,1.12c0,.5.68.53,1,.14h0c.74.9,1.48,1.8,2.23,2.69l-1.84,2.27h2.22c.24-.31.49-.61.73-.91.25.3.5.61.76.91h2.27l-1.9-2.3,2.28-2.83,2.23,2.7-2,2.43h2.21c.29-.36.57-.72.86-1.07l.88,1.07h2.26l-2-2.46,2.29-2.84,2.23,2.73c-.69.86-1.37,1.72-2.06,2.57h2.23c.32-.4.63-.8.95-1.19l1,1.19h2.27l-2.11-2.6,2.28-2.84,2.22,2.74-2.15,2.7h2.23l1.05-1.31,1.06,1.31h2.26l-2.2-2.72,2.28-2.86,2.23,2.76-2.24,2.82h2.23l1.13-1.42,1.14,1.42h4.42c.4-.51.8-1,1.21-1.54l1.23,1.54h4.25l1.27-1.62,1.3,1.62h4.12l1.34-1.71,1.35,1.71h4c.47-.59.93-1.19,1.39-1.78l1.41,1.78h3.92l1.42-1.83,1.44,1.83h3.86l1.45-1.87c.49.62,1,1.24,1.46,1.87H197l1.49-1.92,1.5,1.92h3.74l1.52-2,1.52,2h3.69c.52-.66,1-1.33,1.54-2l1.55,2h3.65l1.56-2,1.56,2H224l1.57-2,1.57,2h3.61c.53-.68,1-1.36,1.58-2l1.57,2h3.62l1.56-2c.52.66,1,1.34,1.56,2h3.66c.51-.66,1-1.33,1.54-2,.51.66,1,1.33,1.54,2H251c.5-.66,1-1.31,1.52-2,.5.65,1,1.3,1.51,2h3.75l1.49-1.92,1.49,1.92h3.81l1.46-1.87,1.45,1.87h3.86c.48-.61,1-1.22,1.44-1.83l1.43,1.83h3.92l1.4-1.78c.47.59.93,1.19,1.39,1.78h4l1.36-1.71,1.33,1.71h4.13l1.29-1.63,1.28,1.63h4.24l1.24-1.54,1.22,1.54h4.4l1.15-1.43,1.13,1.43H310l-2.24-2.82,2.22-2.76,2.28,2.86L310,115.06h2.26l1.06-1.31,1,1.31h2.23l-2.15-2.7c.74-.91,1.48-1.83,2.23-2.74l2.28,2.84-2.11,2.6h2.26l1-1.2,1,1.2h2.23l-2.07-2.57,2.22-2.72,2.28,2.84-2,2.45H326l.86-1,.84,1h2.15a2.7,2.7,0,0,0-.25-.4l-1.63-2c.43-.51.86-1,1.28-1.56a3.84,3.84,0,0,0,.89-2.45s0,0,0-.07,0-.06,0-.08A4,4,0,0,0,329.26,106Zm-174.69,9c-.74-.93-1.49-1.85-2.24-2.78l2.29-2.88,2.23,2.78Zm6.78-.1-2.25-2.8,2.27-2.88,2.24,2.81C162.85,113,162.1,113.94,161.35,114.9Zm6.75-.08c-.74-.94-1.5-1.87-2.24-2.81l2.27-2.89,2.23,2.82Zm6.76-.07-2.25-2.83,2.27-2.89,2.24,2.83C176.36,112.82,175.61,113.79,174.86,114.75Zm6.75-.06-2.25-2.84c.76-1,1.51-1.94,2.27-2.9.74,1,1.49,1.89,2.24,2.84Zm6.76,0c-.75-1-1.51-1.91-2.25-2.87l2.26-2.9c.75,1,1.5,1.91,2.24,2.87Zm6.75,0-2.25-2.87,2.27-2.92,2.24,2.88Zm6.75,0-2.24-2.88c.75-1,1.51-2,2.26-2.92l2.25,2.88Zm6.76,0-2.25-2.89,2.26-2.92,2.25,2.89C210.14,112.6,209.39,113.57,208.63,114.54Zm6.76,0-2.25-2.89c.75-1,1.51-2,2.26-2.92l2.25,2.9Zm6.76,0-2.25-2.9,2.26-2.91c.74,1,1.49,1.93,2.24,2.9Zm6.76,0-2.26-2.91,2.26-2.91,2.25,2.91Zm6.76,0-2.26-2.91,2.25-2.9,2.26,2.91Zm6.76,0c-.76-1-1.51-2-2.26-2.92l2.25-2.89,2.25,2.92C243.93,112.58,243.17,113.54,242.43,114.51Zm6.75,0-2.26-2.92,2.25-2.89,2.26,2.91Zm6.76,0c-.75-1-1.51-2-2.26-2.92.75-1,1.49-1.93,2.25-2.89.75,1,1.5,2,2.26,2.92Zm6.76,0-2.26-2.91,2.24-2.88,2.27,2.92Zm6.74,0-2.25-2.9,2.25-2.87c.75,1,1.5,1.94,2.26,2.9C271,112.74,270.2,113.7,269.44,114.65Zm6.76,0L274,111.8l2.24-2.85,2.26,2.89Zm6.76.06-2.26-2.89c.74-1,1.49-1.89,2.24-2.83l2.26,2.89Zm6.75.07-2.26-2.88,2.24-2.82L292,112Zm6.76.08L294.21,112l2.23-2.8,2.28,2.88Zm6.77.1L301,112.12c.75-.93,1.49-1.86,2.24-2.78l2.28,2.88C304.74,113.15,304,114.07,303.24,115Z" transform="translate(0)"/><path class="cls-1" d="M447,82H427.6a3,3,0,0,0-3,3v50.18a3,3,0,0,0,3,3H447a3,3,0,0,0,3-3V84.91A3,3,0,0,0,447,82Z" transform="translate(0)"/><path class="cls-1" d="M22.4,82H3a3,3,0,0,0-2.95,3v50.18a3,3,0,0,0,3,3H22.4a3,3,0,0,0,3-3V84.91A3,3,0,0,0,22.4,82Z" transform="translate(0)"/><path class="cls-1" d="M354.44,82H335a3,3,0,0,0-3,3v50.18a3,3,0,0,0,3,3h19.44a3,3,0,0,0,2.95-3V84.91A3,3,0,0,0,354.44,82Z" transform="translate(0)"/><path class="cls-1" d="M115,82H95.56a3,3,0,0,0-3,3v50.18a3,3,0,0,0,3,3H115a3,3,0,0,0,3-3V84.91A3,3,0,0,0,115,82Z" transform="translate(0)"/><path class="cls-1" d="M361.52,0H350.4a11.82,11.82,0,0,0-11.8,11.84V208.16A11.82,11.82,0,0,0,350.4,220h11.12a11.82,11.82,0,0,0,11.8-11.84V11.84A11.82,11.82,0,0,0,361.52,0Z" transform="translate(0)"/><path class="cls-2" d="M361.52,5.92H350.4a10.21,10.21,0,0,0-3,.45V22.05c.3,0,.6-.05.91-.05h11.12a10.34,10.34,0,0,1,10.32,10.36V209.63a10.25,10.25,0,0,0,2.09-6.21V16.27A10.35,10.35,0,0,0,361.52,5.92Z" transform="translate(0)"/><path class="cls-1" d="M396.24,17.75H385.12a11.82,11.82,0,0,0-11.8,11.83V190.41a11.82,11.82,0,0,0,11.8,11.84h11.12A11.82,11.82,0,0,0,408,190.41V29.58A11.82,11.82,0,0,0,396.24,17.75Z" transform="translate(0)"/><path class="cls-2" d="M396.24,23.66H385.12a7.34,7.34,0,0,0-.81.05v16h9.85A10.35,10.35,0,0,1,404.49,50.1V191.88a10.28,10.28,0,0,0,2.08-6.2V34A10.36,10.36,0,0,0,396.24,23.66Z" transform="translate(0)"/><path class="cls-1" d="M431,35.84H419.85A11.83,11.83,0,0,0,408,47.68V172.32a11.83,11.83,0,0,0,11.81,11.84H431a11.82,11.82,0,0,0,11.8-11.84V47.68A11.82,11.82,0,0,0,431,35.84Z" transform="translate(0)"/><path class="cls-2" d="M431,41.76H419.85c-.28,0-.55,0-.82,0v16h9.86A10.36,10.36,0,0,1,439.22,68.2V173.79a10.37,10.37,0,0,0,2.07-6.21V52.12A10.35,10.35,0,0,0,431,41.76Z" transform="translate(0)"/><path class="cls-1" d="M99.59,0H88.48A11.83,11.83,0,0,0,76.67,11.84V208.16A11.83,11.83,0,0,0,88.48,220H99.59a11.82,11.82,0,0,0,11.81-11.84V11.84A11.82,11.82,0,0,0,99.59,0Z" transform="translate(0)"/><path class="cls-2" d="M99.59,5.92H88.48a10.28,10.28,0,0,0-3,.45V22.05c.31,0,.61-.05.92-.05H97.51a10.35,10.35,0,0,1,10.33,10.36V209.63a10.25,10.25,0,0,0,2.09-6.21V16.27A10.36,10.36,0,0,0,99.59,5.92Z" transform="translate(0)"/><path class="cls-1" d="M64.87,17.75H53.76A11.82,11.82,0,0,0,42,29.58V190.41a11.83,11.83,0,0,0,11.81,11.84H64.87a11.82,11.82,0,0,0,11.8-11.84V29.58A11.82,11.82,0,0,0,64.87,17.75Z" transform="translate(0)"/><path class="cls-2" d="M64.87,23.66H53.76a7.37,7.37,0,0,0-.82.05v16h9.85A10.35,10.35,0,0,1,73.12,50.1V191.88a10.28,10.28,0,0,0,2.08-6.2V34A10.36,10.36,0,0,0,64.87,23.66Z" transform="translate(0)"/><path class="cls-1" d="M30.15,35.84H19A11.82,11.82,0,0,0,7.23,47.68V172.32A11.82,11.82,0,0,0,19,184.16H30.15A11.82,11.82,0,0,0,42,172.32V47.68A11.82,11.82,0,0,0,30.15,35.84Z" transform="translate(0)"/><path class="cls-2" d="M30.15,41.76H19c-.28,0-.54,0-.81,0v16h9.84A10.36,10.36,0,0,1,38.4,68.2V173.79a10.37,10.37,0,0,0,2.08-6.21V52.12A10.36,10.36,0,0,0,30.15,41.76Z" transform="translate(0)"/></g></svg>